<mxfile host="app.diagrams.net" modified="2024-04-10T08:14:41.951Z" agent="Mozilla/5.0 (Windows NT 10.0; Win64; x64) AppleWebKit/537.36 (KHTML, like Gecko) Chrome/123.0.0.0 Safari/537.36" etag="moIXXC1iqGaSSTmPKRwk" version="24.2.3" type="github">
  <diagram id="C5RBs43oDa-KdzZeNtuy" name="Page-1">
    <mxGraphModel dx="2478" dy="859" grid="1" gridSize="10" guides="1" tooltips="1" connect="1" arrows="1" fold="1" page="1" pageScale="1" pageWidth="827" pageHeight="1169" math="0" shadow="0">
      <root>
        <mxCell id="WIyWlLk6GJQsqaUBKTNV-0" />
        <mxCell id="WIyWlLk6GJQsqaUBKTNV-1" parent="WIyWlLk6GJQsqaUBKTNV-0" />
        <mxCell id="wVPLwSVuaTRjPJKXqYtX-14" style="edgeStyle=orthogonalEdgeStyle;rounded=0;orthogonalLoop=1;jettySize=auto;html=1;exitX=1;exitY=0.5;exitDx=0;exitDy=0;entryX=0;entryY=0.5;entryDx=0;entryDy=0;" edge="1" parent="WIyWlLk6GJQsqaUBKTNV-1" source="wVPLwSVuaTRjPJKXqYtX-0" target="wVPLwSVuaTRjPJKXqYtX-2">
          <mxGeometry relative="1" as="geometry" />
        </mxCell>
        <mxCell id="wVPLwSVuaTRjPJKXqYtX-0" value="start" style="rounded=0;whiteSpace=wrap;html=1;" vertex="1" parent="WIyWlLk6GJQsqaUBKTNV-1">
          <mxGeometry x="-200" y="200" width="120" height="60" as="geometry" />
        </mxCell>
        <mxCell id="wVPLwSVuaTRjPJKXqYtX-16" style="edgeStyle=orthogonalEdgeStyle;rounded=0;orthogonalLoop=1;jettySize=auto;html=1;exitX=1;exitY=0.5;exitDx=0;exitDy=0;" edge="1" parent="WIyWlLk6GJQsqaUBKTNV-1" source="wVPLwSVuaTRjPJKXqYtX-2" target="wVPLwSVuaTRjPJKXqYtX-4">
          <mxGeometry relative="1" as="geometry" />
        </mxCell>
        <mxCell id="wVPLwSVuaTRjPJKXqYtX-2" value="待下发" style="rounded=0;whiteSpace=wrap;html=1;" vertex="1" parent="WIyWlLk6GJQsqaUBKTNV-1">
          <mxGeometry x="40" y="200" width="120" height="60" as="geometry" />
        </mxCell>
        <mxCell id="wVPLwSVuaTRjPJKXqYtX-3" value="待寄送" style="whiteSpace=wrap;html=1;" vertex="1" parent="WIyWlLk6GJQsqaUBKTNV-1">
          <mxGeometry x="520" y="200" width="120" height="60" as="geometry" />
        </mxCell>
        <mxCell id="wVPLwSVuaTRjPJKXqYtX-8" style="edgeStyle=orthogonalEdgeStyle;rounded=0;orthogonalLoop=1;jettySize=auto;html=1;exitX=1;exitY=0.5;exitDx=0;exitDy=0;entryX=0;entryY=0.5;entryDx=0;entryDy=0;" edge="1" parent="WIyWlLk6GJQsqaUBKTNV-1" source="wVPLwSVuaTRjPJKXqYtX-4" target="wVPLwSVuaTRjPJKXqYtX-6">
          <mxGeometry relative="1" as="geometry" />
        </mxCell>
        <mxCell id="wVPLwSVuaTRjPJKXqYtX-9" style="edgeStyle=orthogonalEdgeStyle;rounded=0;orthogonalLoop=1;jettySize=auto;html=1;exitX=1;exitY=0.5;exitDx=0;exitDy=0;" edge="1" parent="WIyWlLk6GJQsqaUBKTNV-1" source="wVPLwSVuaTRjPJKXqYtX-4" target="wVPLwSVuaTRjPJKXqYtX-3">
          <mxGeometry relative="1" as="geometry" />
        </mxCell>
        <mxCell id="wVPLwSVuaTRjPJKXqYtX-10" style="edgeStyle=orthogonalEdgeStyle;rounded=0;orthogonalLoop=1;jettySize=auto;html=1;exitX=1;exitY=0.5;exitDx=0;exitDy=0;entryX=0;entryY=0.5;entryDx=0;entryDy=0;" edge="1" parent="WIyWlLk6GJQsqaUBKTNV-1" source="wVPLwSVuaTRjPJKXqYtX-4" target="wVPLwSVuaTRjPJKXqYtX-5">
          <mxGeometry relative="1" as="geometry" />
        </mxCell>
        <mxCell id="wVPLwSVuaTRjPJKXqYtX-4" value="工单作废&lt;br&gt;直送供应商" style="rhombus;whiteSpace=wrap;html=1;" vertex="1" parent="WIyWlLk6GJQsqaUBKTNV-1">
          <mxGeometry x="280" y="190" width="80" height="80" as="geometry" />
        </mxCell>
        <mxCell id="wVPLwSVuaTRjPJKXqYtX-5" value="已终止" style="whiteSpace=wrap;html=1;" vertex="1" parent="WIyWlLk6GJQsqaUBKTNV-1">
          <mxGeometry x="520" y="380" width="120" height="60" as="geometry" />
        </mxCell>
        <mxCell id="wVPLwSVuaTRjPJKXqYtX-6" value="待供应商直送件" style="whiteSpace=wrap;html=1;" vertex="1" parent="WIyWlLk6GJQsqaUBKTNV-1">
          <mxGeometry x="520" y="30" width="120" height="60" as="geometry" />
        </mxCell>
        <mxCell id="wVPLwSVuaTRjPJKXqYtX-7" value="已寄送" style="whiteSpace=wrap;html=1;" vertex="1" parent="WIyWlLk6GJQsqaUBKTNV-1">
          <mxGeometry x="770" y="200" width="120" height="60" as="geometry" />
        </mxCell>
        <mxCell id="wVPLwSVuaTRjPJKXqYtX-11" value="已提货" style="whiteSpace=wrap;html=1;" vertex="1" parent="WIyWlLk6GJQsqaUBKTNV-1">
          <mxGeometry x="1000" y="200" width="120" height="60" as="geometry" />
        </mxCell>
        <mxCell id="wVPLwSVuaTRjPJKXqYtX-12" value="已到达白云总仓" style="whiteSpace=wrap;html=1;" vertex="1" parent="WIyWlLk6GJQsqaUBKTNV-1">
          <mxGeometry x="1230" y="200" width="120" height="60" as="geometry" />
        </mxCell>
        <mxCell id="wVPLwSVuaTRjPJKXqYtX-13" value="已签收" style="whiteSpace=wrap;html=1;" vertex="1" parent="WIyWlLk6GJQsqaUBKTNV-1">
          <mxGeometry x="1450" y="200" width="120" height="60" as="geometry" />
        </mxCell>
        <mxCell id="wVPLwSVuaTRjPJKXqYtX-15" value="提交" style="text;html=1;align=center;verticalAlign=middle;resizable=0;points=[];autosize=1;strokeColor=none;fillColor=none;" vertex="1" parent="WIyWlLk6GJQsqaUBKTNV-1">
          <mxGeometry x="-55" y="208" width="50" height="30" as="geometry" />
        </mxCell>
        <mxCell id="wVPLwSVuaTRjPJKXqYtX-17" value="定时任务下发" style="text;html=1;align=center;verticalAlign=middle;resizable=0;points=[];autosize=1;strokeColor=none;fillColor=none;" vertex="1" parent="WIyWlLk6GJQsqaUBKTNV-1">
          <mxGeometry x="160" y="208" width="100" height="30" as="geometry" />
        </mxCell>
        <mxCell id="wVPLwSVuaTRjPJKXqYtX-18" value="工单状态.已作废" style="text;html=1;align=center;verticalAlign=middle;resizable=0;points=[];autosize=1;strokeColor=none;fillColor=none;" vertex="1" parent="WIyWlLk6GJQsqaUBKTNV-1">
          <mxGeometry x="365" y="318" width="110" height="30" as="geometry" />
        </mxCell>
      </root>
    </mxGraphModel>
  </diagram>
</mxfile>
